<svg version="1" xmlns="http://www.w3.org/2000/svg" width="585.333" height="585.333" viewBox="0 0 439.000000 439.000000"><path d="M211 26.4c-3.5 1.5-8.5 2.6-14 3-4.7.3-10.8 1.2-13.5 2-2.8.8-8.1 2-12 2.6-3.8.7-9.2 1.8-11.9 2.6-2.7.8-6.2 1.4-7.8 1.4-1.5 0-4.7.9-7 1.9-2.4 1.1-5.5 2.2-7 2.5-1.4.3-4 1.7-5.6 3.1-1.7 1.4-4.5 3.1-6.2 3.7-1.8.6-6.3 2.8-10.1 4.8-3.8 2.1-9 4.6-11.7 5.4-2.7.9-6.2 3-7.8 4.7-1.6 1.7-5.9 5.1-9.5 7.4-3.6 2.4-7.3 5.4-8.1 6.7-2.2 3.3-13.1 14.3-20.9 21-6.9 5.9-11 11.3-19.3 25.1-8.7 14.7-12.3 22-15.6 32.2-1.8 5.5-3.8 11.5-4.6 13.3-.8 1.8-1.7 5.1-2 7.5-.3 2.3-1.6 7.6-2.7 11.7-2 6.9-2.2 9.8-2.2 36.5 0 24.5.3 29.8 1.7 34 .9 2.7 2.2 7.6 2.7 10.8 2.1 11.6 8.2 27.5 15.6 40.2 1.9 3.3 4.1 7.5 5 9.3 2.1 4.4 17.4 26.7 22.1 32.2 10.8 12.5 31.5 30.7 38.9 34.1 1.1.5 4 2.3 6.5 3.9 13.7 8.9 37.6 21 41.4 21 .9 0 3.1.7 4.9 1.6 1.7.9 5.4 2.3 8.2 3 2.7.7 7.5 2 10.5 2.9 13.3 3.7 22 4.5 51.5 4.5 21.7 0 31.3-.4 38-1.6 9.7-1.6 30.3-7.1 32.1-8.5.6-.5 3.5-1.4 6.5-2 5.4-1.1 25.7-10.5 33.4-15.3 2.2-1.4 5.3-3.3 6.9-4.2 4.3-2.4 9.8-6.5 16.2-12 3.1-2.7 7.7-6.7 10.2-8.9 11.3-9.5 34.2-35.1 34.2-38.1 0-.4.9-1.7 1.9-2.8 2.4-2.6 14.1-24 14.1-25.8 0-.7.7-2.6 1.5-4.2s2.2-5.4 3.1-8.5c.9-3.1 2-6.1 2.5-6.7.5-.6 1.5-3.9 2.4-7.5.8-3.5 2.2-8.6 3-11.3.8-2.7 2.2-12.2 3.1-20.9 1.3-13.5 1.4-18.7.4-32.6-.6-9.1-1.5-18.4-1.9-20.6-1.4-6.5-5.9-22.5-8.5-30-4-11.8-16.7-35.5-24.3-45.5-1.1-1.4-3.6-5.2-5.6-8.5C384.6 99 364.9 79 357.8 75c-3.2-1.7-8-5.2-10.7-7.6-2.8-2.5-7.4-5.3-10.7-6.6-3.3-1.2-7-2.9-8.4-3.8-1.4-1-7.7-4.2-14.1-7.3-6.3-3-13.2-6.7-15.4-8.1-2.1-1.4-5.1-2.6-6.7-2.6-1.6 0-4.5-.8-6.6-1.9-2-1-6.5-2.1-9.9-2.4-3.5-.3-10.4-1.4-15.5-2.5-14.2-3.2-22.8-4.5-28.1-4.3-3.4.1-5.9-.5-8.1-1.9-4.2-2.5-5.8-2.5-12.6.4zm38.9 20.1c4.9.4 8.5 1.2 10.6 2.5 1.8 1.1 4.6 2 6.3 2 7.7 0 23.7 5.5 43 14.7 5.7 2.8 5.6 2.7 4.2 5.2-.8 1.6-.4 1.9 3.6 2.5 4.9.6 8.4 2.1 8.4 3.6 0 .5-1.8 1.9-4 3s-4 2.8-4 3.7c0 1.4 1.1 1.5 9.4.9 5.9-.4 10.4-.2 12.3.5 5.8 2.2 13.3 8.1 21.9 17.4 15.4 16.6 15.2 17.1-6.7 17.4-13.2.1-15.3.3-16.5 1.8-.7 1-1 2.1-.6 2.4.8.7 12.9 3.4 23.2 5.1 3.5.5 7.3 1.6 8.5 2.3 1.1.8 3.7 1.7 5.9 2.1 4.6.8 12.6 7.9 12.6 11.2 0 3.8 1.2 4.1-23.7-5.1-14-5.1-25.3-6.6-25.3-3.4 0 1.5 3.6 3.5 12.5 6.8 15.6 5.8 21.8 10.6 27.4 21.3 2.9 5.4 3.1 6.7 3.1 15.7 0 12.3-.8 14.6-5.4 15.5-2.7.4-4.4.1-6.8-1.4-8.1-5.1-19.6-11.2-21.2-11.2-2.9 0-1.8 1.7 6.4 9.7 8.2 7.9 17 19.6 17 22.5 0 .9-.7 1.9-1.6 2.2-3.4 1.3-6.6-.9-13.5-9.3-8.3-9.9-14.6-16.1-16.4-16.1-.7 0-1.5.9-1.8 2-.4 1.4 1.1 4.1 5.1 9 7.7 9.5 10.2 12.7 10.2 13.3 0 .3-.7 1.3-1.6 2.1-1.3 1.3-4.4 1.6-17.8 1.6-18.7 0-21-.7-18.7-5.6 3.1-6.7 6.2-19.5 7.1-29.6 1.9-20.4-1.9-41.2-10.6-58-4.6-8.9-14.7-19.3-22.4-23.4-4.9-2.5-6.6-2.9-14.5-2.9-8 0-9.6.3-14.8 3-9.6 4.8-18 14.1-24.7 27.3-3.4 6.8-5 8.1-8.6 7.4l-2.4-.4v-70l2.2-1.8c2-1.6 2.3-2.9 2.7-10.5.4-9.8 1.1-10.6 8.6-9.9 2.2.2 7.3.6 11.4.9zm-45.4.6c.4.6.9 3.8 1.2 7.2.7 9.4 1.1 10.5 4.3 12.2l3 1.6v21c0 20.4-.1 20.9-1.9 19.9-1.1-.5-2.3-2-2.6-3.2-.8-2.6-9.4-11.8-11-11.8-.5 0-2.6-1-4.5-2.2-5.2-3.3-17.7-6.7-24.6-6.8-5.7 0-14.5 2.6-18.1 5.3-2.1 1.5-1.5 4.5 1.1 6.2 2 1.3 3.2 1.4 6.3.6 8.4-2.4 19.2-.7 29.7 4.6 5.8 2.9 6.5 3.5 12.1 9.2l4.3 4.5 4.1-1.4c2.3-.7 4.3-1.1 4.5-.9.8.7.9 22.6.2 23.8-1.8 2.8-9.6-.3-9.6-3.8 0-2.5-8.8-14.8-14.1-19.7-16.1-14.7-37.5-13.4-53.1 3.4-9.6 10.4-16.8 27.1-18.9 43.7-1.4 11.1-.6 32 1.6 39.5 3.8 13.1 4.3 15.9 3.1 17.5-.8 1.2-4.3 1.7-14.8 2.2-12.5.5-14 .4-15.8-1.2-1.1-1-2-2.1-2-2.5 0-.4 2.7-3.5 6-6.9 6-6.2 7.3-9.5 5.1-13-1.2-1.9-8.4 3.1-18.6 13.1-4.4 4.3-8.4 7.8-9 7.8-1.7 0-3.2-1.4-3.9-3.5-.5-1.9 0-3 4.9-10.1 2.2-3.2 9-9.9 12-11.8 1.1-.7 4.4-2.8 7.3-4.6 2.8-1.8 5.2-3.7 5.2-4.1 0-2.2-5.3-2-14 .6-7.6 2.3-16 3.7-18.5 3.1-1.5-.4-2.9-2.2-4.4-5.5-4.5-10.6-1.5-26.9 6.3-33.7 4.9-4.3 14.9-7.4 23.5-7.4 6.7 0 10.1-1.4 10.1-4 0-3.1-31.1-5.8-40.7-3.6-4.1.9-4.4-.9-.8-5.2 3.6-4.3 9.2-5.4 20.7-4.2 22.7 2.6 22.4 2.6 20.8-1.5-.5-1.4-3.1-2.7-8.1-4.4-10-3.2-14.9-5.3-16.5-6.9-2.1-2 .2-5.6 8.5-13.2 15.2-14 18.5-15.3 27-10.5 4.2 2.4 9.1 3.3 9.1 1.7 0-.5-2-2.6-4.5-4.8-2.5-2.1-4.5-4.7-4.5-5.6 0-2.5 4.4-3.4 7.2-1.4 2.4 1.7 5.8 2.1 5.8.7 0-.5-1.1-1.6-2.5-2.5-2.4-1.6-2.4-1.8-.9-4.1s6.8-5.2 17.9-9.7c5.2-2.1 14.7-3.9 22.7-4.1 4.2-.2 4.6-.4 4.5-2.6-.2-2.1.6-2.6 6.8-4.3 3.9-1.1 9-2.3 11.5-2.8 6.8-1.2 18.8-1.2 19.5.1zm71.4 83.4c15.5 8 26 34 23.7 58.7-.7 7.3-.8 7.5-4.2 9.1-4.2 2.1-5.4 4.9-5.4 13.2 0 7.8-.9 8.5-10.9 8.5-10.8 0-14.6-2.6-10.4-7.2 1.3-1.4 1.8-4.3 2.1-11.3.4-8.4.2-9.8-2.1-14.7-4.8-10-8.6-12.8-17.5-12.8h-6.6l-5.1 5.2c-2.8 2.9-5.8 6.9-6.8 9-2 4.2-2.2 12.1-.6 19.9 1.8 8.5 1.7 9.2-1.3 10.3-2 .7-3.1.6-4.3-.4-1.5-1.2-1.6-4.6-1.3-31.7.3-17.9.8-30.4 1.4-30.6.5-.1 1.4 1.8 2 4.3.9 3.6 1.3 4.1 1.9 2.5 1.9-5.5 2.9-6.5 8.1-8 6.7-1.9 7.8-3.8 7-11.9-.7-6-.6-6.1 2.7-8.8 7.4-5.8 19.9-7.3 27.6-3.3zm-85.2 2.3c4.7 3 5.1 4.5 2.9 10.7-1.2 3.3-1.2 4.4-.2 6 1.9 3 7.6 5.5 12.6 5.5 2.5 0 5.1.4 5.8.9 2 1.2 1.2 25.3-1 30.1-1.4 3.1-1.6 3.3-2.3 1.5-3.8-10.7-6.1-13.2-14.1-14.7-5.4-1-6.3-.9-10.2 1.1-4.6 2.4-9.5 8.9-11.2 15.1-2.4 8.6-.6 21.4 3.6 26.1 1.5 1.6 1.3 1.9-1.6 3.4-2.5 1.3-5.3 1.6-11.5 1.3-9.9-.4-11.8-1.6-13.6-9.1-.6-2.9-2.3-7.4-3.8-10.2-2.4-4.7-2.5-5.7-2.4-19 0-12.9.3-14.7 3.2-22.8 5.2-15 15-26.2 25-28.7 5.7-1.4 14-.2 18.8 2.8zM38.1 200.2c1.6 12.4 1.9 11.3-2.8 11.6-4.3.3-4.3.3-4.3-3.1 0-1.9.9-4.6 2.1-6 1.1-1.5 2.3-4.3 2.6-6.2.8-4.8 1.4-3.8 2.4 3.7zM212 216c0 1.3-4.1 2.3-5.1 1.3-.6-.6-.3-2.5.7-4.8l1.6-3.9 1.4 3.3c.8 1.8 1.4 3.7 1.4 4.1zm196-5.5c0 .9-.9 1.5-2.5 1.5-2.6 0-3.4-1.5-1.2-2.3 2.3-1 3.7-.7 3.7.8zm-228.2 22.2c-1 .2-2.8.2-4 0-1.3-.2-.5-.4 1.7-.4 2.2-.1 3.2.1 2.3.4zm30.4 1c1.6 1.4 1.8 3.5 1.8 19.9 0 20.8.2 20.4-8.4 20.4-2.5 0-6.5.6-8.8 1.4-2.4.8-7 2.1-10.3 3-3.3.8-10 3-15 4.9-4.9 1.9-11.5 4.4-14.5 5.6-6.3 2.4-10.6 6.2-9.7 8.5.9 2.2 5.9 2 10.4-.4 2.1-1.1 4.5-2 5.3-2 .8 0 2.9-.9 4.7-1.9 1.7-1.1 5.7-2.4 8.9-3 3.1-.6 6.2-1.5 6.9-2.1.7-.6 4.5-1.6 8.6-2.4 4.1-.8 10.1-2.1 13.3-3.1 7.5-2.1 8.4-1.3 8.8 7.6.3 8.7-.7 9.9-8.1 9.9-7 0-9.8 1.4-13.3 6.6-1.5 2.3-4 4.6-5.5 5.2-7.6 2.8-16.4 5.1-21.6 5.6-7.1.8-12.8 3.5-14.7 7.2-2.4 4.3-2.1 33.5.3 39.4 3.8 9.2 6.1 13 10.6 17.8 4.5 4.8 18.7 16.5 21.3 17.5 1.1.5 1.1.7 0 1.5-2.3 1.6-14.2-1.7-24.9-7-6.3-3.1-14.3-10.5-14.3-13.2 0-.8-.6-1.9-1.4-2.3-1.9-1.1-6.6-15.7-7.3-22.9-.3-3.3 0-10 .7-14.9 1.2-8.8 1.2-8.9-1-10.7-2-1.6-3.6-1.8-11.5-1.4-11.5.6-17.6-1-22.5-5.9-3.2-3.3-3.5-4-3.4-9.3.1-6.2 2.8-12.8 9.7-23.5 4.4-6.7 3.9-9.3-1.8-10.2-1.9-.3-5.2-.8-7.2-1.1-10.9-1.6-23.3-7.2-27.8-12.5-3-3.7-3.4-9.8-.8-14.7 2.5-4.5 10.7-12.6 15.8-15.7 4.3-2.5 4.7-2.5 24.9-2.5 15.1 0 20.7.3 21.2 1.2.5.7 1.1 4.4 1.4 8.2.5 6.6.7 7.2 3.9 9.3 4.5 3.1 7 2.9 12.1-.8 3.3-2.4 4.8-2.9 6.9-2.4 12 3.2 23.3.4 33.1-8.2 5.7-4.9 9.3-6.6 16.5-7.6 1.7-.2 3.4-.5 3.9-.6.5 0 1.8.6 2.8 1.6zm32.8.5c1.9.6 6 3.2 9.1 5.9 6.1 5.3 16.8 9.9 22.9 9.9 2.1 0 6.1-.5 8.9-1.2 4.7-1 5.3-1 6.5.7 1.1 1.5 2.6 1.9 7.1 1.9 3.1-.1 6.1-.6 6.8-1.3.6-.6 1.3-4 1.5-7.6.6-9.8-.2-9.5 29.7-9.5 27.9 0 33.6.9 38 5.5 2 2.3 2.5 3.8 2.5 7.9 0 4.4-.6 5.9-4.2 10.8-2.6 3.4-7.9 8.3-13.5 12.4-5 3.7-9.4 7.6-9.7 8.7-.5 2.1 0 3.7 3.3 10.7 3.2 6.8 5.8 18.1 4.9 21.6-.4 1.6-1 4.1-1.3 5.6-.3 1.5-2.1 3.9-4.2 5.5-3.3 2.5-4.4 2.8-11.2 2.7-4.5 0-11.2-1-16.5-2.4-8.7-2.3-8.9-2.3-10.3-.4-1.1 1.5-1.2 3.4-.6 8.9.4 3.8.8 13.5.7 21.5-.1 14.1-.2 14.7-3.3 21.4-3.9 8.3-11.8 17-17 18.7-2 .6-5.4 2-7.6 2.9-4.7 2.1-13.5 3.6-13.5 2.4 0-.5 1.4-2 3.1-3.4 9.1-7.3 11.3-9.3 14.2-12.9 11.8-14.7 14.7-28.3 11.3-53.3-1.6-12.3-3.4-17.3-6.3-18.1-7.4-2-18.9-3.7-31-4.6-10.9-.8-15-1.5-17.9-3-2.8-1.5-5.7-2.1-10.4-2.1-3.6 0-7.2-.5-8-1-2.1-1.3-2.4-15.4-.4-17.1 2.1-1.8 15.2-1.1 24.1 1.2 4.3 1.1 11.2 2.4 15.3 3 4.1.6 8 1.5 8.6 2 .6.5 4.1 1.5 7.8 2.3 3.7.7 7.5 2.1 8.5 3 2 1.8 5.4 2.1 8.2.6 5-2.7-.6-7.7-13.1-11.8-14.1-4.5-31-8-44.2-9.1-6.5-.6-12.7-1.5-13.8-2.1-1.8-1-2-2.1-2-14.3 0-7.3-.3-14.8-.6-16.8-.5-3-.2-4.1 1.6-5.9 1.9-1.9 2.9-2.1 7.4-1.6 2.8.4 6.7 1.2 8.6 1.8zm30-.2c-3.1 2.5-6.3 3.4-9.2 2.6-1.3-.3-3.4-1.5-4.8-2.6l-2.5-2h19l-2.5 2zm-229.2 9.6c1.9.3 3.2 1.1 3.2 2 0 .8.8 2.6 1.7 4.1 2.6 3.9 6.2 13.1 7.9 19.8.8 3.3 2 6.8 2.5 7.9.6 1 1.7 4 2.5 6.7.8 2.6 1.9 5.1 2.4 5.4.6.3 3.3 5.4 6.1 11.3s5.9 11.6 6.9 12.7c1 1.1 2.1 3.1 2.5 4.5.4 1.4 1.7 3.8 2.9 5.5 1.2 1.6 3.1 4.8 4.3 7 1.1 2.2 4.2 7.1 6.9 10.9 2.7 3.8 6.1 8.6 7.7 10.8 1.5 2.1 2.7 4.8 2.7 5.8 0 1.1.9 2.9 2 4 2.6 2.6 2.5 2.8-.5 2.2-1.4-.2-2.5-.7-2.5-1.1 0-.4-1.6-1.3-3.6-2s-4.6-2.2-5.8-3.2c-1.1-1.1-2.8-2.6-3.7-3.4-.9-.8-2-1.5-2.5-1.5-1.3 0-9.9-9.1-10.7-11.3-.3-.9-1-1.7-1.5-1.7s-1.5-1.4-2.2-3c-.7-1.7-1.6-3-2-3-.4 0-2.9-3-5.6-6.6-2.7-3.6-5.9-7.7-7.1-9.1-1.3-1.4-2.3-3-2.3-3.5 0-.6-.8-2.2-1.9-3.6-1-1.5-2.2-4.1-2.5-5.9-.4-1.7-1.3-3.7-2.1-4.3-.7-.6-1.6-2.2-1.9-3.5-.3-1.3-2-4.5-3.7-7-1.7-2.6-3.6-6.5-4.1-8.7-.5-2.2-1.8-5.2-2.8-6.6-1.5-1.9-2-4-2-9.2 0-4-.8-9.3-2-13-2-6.2-2.4-9.2-1.6-10.1.5-.5 7.2-.1 12.4.7zM408 249c0 2.8-.7 6.5-1.7 8.3-.9 1.7-1.8 6.3-2.1 10.2-.2 4.2-1.2 8.2-2.2 10-1 1.6-2.1 5.3-2.5 8.2-.4 3.1-1.4 5.8-2.6 6.9-1 .9-1.9 2.5-1.9 3.6 0 1-1.6 4-3.5 6.8-1.9 2.7-3.7 6-4.1 7.4-.3 1.3-1.4 3.2-2.5 4.2-1 .9-1.9 2.5-1.9 3.4 0 1-.7 2.4-1.7 3.1-.9.8-2.2 2.9-3 4.6-.7 1.8-1.7 3.3-2.2 3.3-.6 0-1.3.9-1.6 2-.3 1.1-1.3 2-2.1 2s-1.7.7-2 1.5c-.4.8-1.3 1.5-2 1.5-.8 0-1.8.8-2.1 1.7-.4 1-1.6 2.8-2.7 3.9-3.5 3.6-6.6 7.8-6.6 9.1 0 .7-.8 1.3-1.8 1.3-1.1 0-2.7.9-3.7 2s-2.9 2-4.1 2c-2.3 0-2.1-.4 2.4-7.3 2.6-3.9 5.4-8.3 6-9.7 2.3-4.5 3.9-7 6-9.3 1.1-1.2 2.3-3.7 2.7-5.4.3-1.8 1-3.5 1.5-3.8.5-.3 2.5-4 4.6-8.3 2-4.2 4.2-8.4 4.9-9.2.7-.8 2-3.8 3-6.5 1-2.8 2.4-5.7 3.1-6.5 1.5-1.8 12.4-33.5 12.4-36.1 0-1 1.1-2.6 2.5-3.5 1.9-1.2 2.3-2.2 1.9-4-.6-2.3-.4-2.4 4.5-2.4h5.1v5zM114 370.5c1 1.2 1 1.5-.4 1.5-.9 0-1.6-.7-1.6-1.5s.2-1.5.4-1.5.9.7 1.6 1.5z"/><path d="M269 81.6c-9.7 1.5-10 1.7-19.7 8.1-11.2 7.5-12.7 9.3-12.7 15.1-.1 4.5 0 4.7 3 5 2.6.3 4-.6 8.8-5.2 3.1-3.1 7.8-6.5 10.4-7.6 2.6-1.1 6.1-2.8 7.7-3.6 4.5-2.5 15.4-3 21.4-1 6.5 2.1 6.9 2 8.2-.8 3.4-7.3-10.9-12.6-27.1-10zM94.5 245.3c-1.7.8-4.5 2.9-6.3 4.7-2.6 2.5-3.2 4-3 6.4.3 2.6.8 3.2 3.2 3.4 1.6.2 4.6-.4 6.8-1.4 2.1-.9 3.9-1.5 4.1-1.3.1.2 1.6 2.4 3.2 4.9 6.2 9.6 15.2 16.9 19.4 15.5 1-.3 2.3-1.6 2.9-2.9.9-2 .7-2.7-.7-4-1-.9-2.1-1.6-2.5-1.6-1.5 0-7.7-7.4-8.3-9.9-.3-1.3-.1-3.2.6-4.2 1.7-2.9 1.4-4.3-1.9-7.4-2.5-2.4-4-2.9-8.7-3.2-3.5-.2-7 .2-8.8 1zM344.1 243.2c-1.8.5-5.4 2.6-7.8 4.6-3.6 3-4.3 4.2-4.1 6.6.5 4.6 2.9 5.4 8 2.7 2.4-1.3 5.1-3.1 6.2-4 1-.9 4.4-1.8 8-2.1 5.3-.4 6.1-.8 6.4-2.6.7-5.1-7.9-7.8-16.7-5.2z"/></svg>